<svg xmlns="http://www.w3.org/2000/svg" xmlns:xlink="http://www.w3.org/1999/xlink" width="186" height="186" viewBox="0 0 186 186">
  <defs>
    <clipPath id="clip-Black-text">
      <rect width="186" height="186"/>
    </clipPath>
  </defs>
  <g id="Black-text" clip-path="url(#clip-Black-text)">
    <g id="Artboard_3useed" data-name="Artboard 3useed" transform="translate(4 8)">
      <path id="Path_1" data-name="Path 1" d="M175.449,102.548l-171.339.49v-.1a4.625,4.625,0,0,1,.458-.327L37.257,81.546a1.308,1.308,0,0,1,.981-.2l28.946,4.462L91.7,89.571l28.276,4.3,27.786,4.348,22.392,3.432,4.9.735.441.131Z" transform="translate(2.608 51.596)"/>
      <path id="Path_2" data-name="Path 2" d="M86,3.39c0,1.52.147,3.04.212,4.544q.49,11.833,1,23.683.229,5.443.49,10.9a1.634,1.634,0,0,1-.409,1.226L59.755,77.937,9.186,140.912.392,151.863a.834.834,0,0,1-.392.294L85.906,3.423H86" transform="translate(0 2.151)"/>
      <path id="Path_3" data-name="Path 3" d="M55,0l85.514,148.211-.588-.278-33.931-17.75a1.357,1.357,0,0,1-.719-.785Q80.219,64.953,55.131.49Z" transform="translate(34.894)" fill="#ed1d24"/>
      <path id="Path_4" data-name="Path 4" d="M15.793,100.866c-.082.932-.18,1.88-.262,2.811s-.114,1.422-.18,2.125c-.1.964-.114.964.8,1.357h-2.4c.883,0,.785-.785.85-1.357.278-2.337.523-4.691.785-7.044a4.477,4.477,0,0,1,.082-.458h.147c1.209,2.452,2.4,4.9,3.645,7.453l3.5-7.42h.131a3.268,3.268,0,0,1,.114.507c.262,2.321.523,4.642.752,6.963.1.834.458,1.34,1.357,1.357H22.887c-.2-2.19-.376-4.3-.572-6.407H22.2l-3.073,6.538h-.2l-3.138-6.423h0" transform="translate(8.724 62.366)"/>
      <path id="Path_5" data-name="Path 5" d="M11.554,107.21l-3.171-6.538c0,.572-.114,1.013-.147,1.438-.114,1.275-.229,2.533-.327,3.808,0,.8,0,.8.8,1.193H6.34c.262-.163.556-.245.686-.441a2.141,2.141,0,0,0,.18-.817l.785-7.044a1.056,1.056,0,0,1,.1-.539h.147c1.209,2.452,2.4,4.9,3.645,7.453l3.481-7.437h.229c0,.163.1.311.114.474.245,2.3.507,4.625.752,6.946a1.245,1.245,0,0,0,1.357,1.406H15.591c-.2-2.19-.392-4.3-.572-6.407h-.131c-1.013,2.174-2.043,4.315-3.056,6.538h-.278" transform="translate(4.022 62.347)"/>
      <path id="Path_6" data-name="Path 6" d="M70.372,102.473h0v3.269a.768.768,0,0,0,.785.866,11.785,11.785,0,0,0,2.4,0,2.681,2.681,0,0,0,1.863-1.209,4.233,4.233,0,0,0-2.288-6.391,12.864,12.864,0,0,0-2.157-.163c-.392,0-.556.147-.556.572v3.056m-1.733,4.609c.735,0,.686-.637.7-1.128V99.417c0-.637-.294-.915-.932-.866V98.42h4.9a3.923,3.923,0,0,1,3.727,3.955,4.3,4.3,0,0,1-3.579,4.609,19.236,19.236,0,0,1-2.909,0l-2.027-.1" transform="translate(43.434 62.442)"/>
      <path id="Path_7" data-name="Path 7" d="M69.259,105.537V99.62c0-.621,0-.621-1.079-1.079H70.7c-.9.18-.735.866-.752,1.487v6.538a1.864,1.864,0,0,1-.1.7c-2.435-2.207-4.593-4.625-6.848-7.093v.343c0,1.634,0,3.269.147,4.9,0,1.193,0,1.193,1.111,1.634H61.61c.866-.114.8-.768.8-1.357V99.081a1.749,1.749,0,0,1,.18-.8l6.669,7.257" transform="translate(39.088 62.353)"/>
      <path id="Path_8" data-name="Path 8" d="M87.624,98.58h2.533c-.981.212-.735,1-.735,1.634v6.358a2.615,2.615,0,0,1,0,.768c-2.435-2.207-4.593-4.625-6.848-7.077a.915.915,0,0,0,0,.327c0,1.634,0,3.383.147,5.083,0,1.128,0,1.128,1.128,1.536H81.07c.883-.131.8-.8.8-1.406V98.22l6.9,7.486v-.637l-.1-4.9c0-1.177,0-1.177-1.128-1.634" transform="translate(51.434 62.315)"/>
      <path id="Path_9" data-name="Path 9" d="M47.168,103.032a4.9,4.9,0,0,0-.964-3.073,3.269,3.269,0,0,0-3.367-1.177,2.975,2.975,0,0,0-2.419,2.419,5.41,5.41,0,0,0-.147,1.259,4.544,4.544,0,0,0,1.357,3.6,3.154,3.154,0,0,0,5.328-1.634,14.481,14.481,0,0,0,.212-1.471m-3.351-4.658a4.233,4.233,0,0,1,4.446,4.429,4.56,4.56,0,0,1-4.691,4.74,4.331,4.331,0,0,1-4.429-4.576,4.462,4.462,0,0,1,4.675-4.593" transform="translate(24.829 62.357)"/>
      <path id="Path_10" data-name="Path 10" d="M82.686,103.064a4.9,4.9,0,0,0-.981-3.073,3.269,3.269,0,0,0-3.269-1.177,2.975,2.975,0,0,0-2.419,2.419,5.41,5.41,0,0,0-.147,1.259,4.544,4.544,0,0,0,1.357,3.6,3.154,3.154,0,0,0,5.328-1.634,14.485,14.485,0,0,0,.212-1.471m-3.53,4.38a4.331,4.331,0,0,1-4.495-4.576,4.478,4.478,0,0,1,4.576-4.544,4.217,4.217,0,0,1,4.446,4.511,4.544,4.544,0,0,1-4.609,4.74" transform="translate(47.416 62.325)"/>
      <path id="Path_11" data-name="Path 11" d="M35.83,100.911v1.634a.506.506,0,0,0,.245.392c1.455.36,2.452.147,2.6-1.634s-.817-2.68-2.435-2.517c-.294,0-.425.131-.409.458s0,1.1,0,1.634m-1.929-2.4a33.869,33.869,0,0,1,3.874,0,2.043,2.043,0,0,1,1.634,3.089A15.512,15.512,0,0,1,38.3,103.2a39.817,39.817,0,0,0,2.648,3.024,4.9,4.9,0,0,0,1.455.752,2.68,2.68,0,0,1-3.04-1.03,22.585,22.585,0,0,1-1.52-2.027,1.128,1.128,0,0,0-1.144-.572h-.785v2.991c0,.18.278.343.458.474s.294,0,.441.163h-2.7c.7-.147.686-.7.686-1.226v-6.08c0-.981,0-.981-.981-1.259" transform="translate(21.457 62.436)"/>
      <path id="Path_12" data-name="Path 12" d="M33.5,102.957h2.648c-.637.1-.768.523-.768,1.062v2.386a.572.572,0,0,1-.425.621,6.178,6.178,0,0,1-5.459-.474,4.478,4.478,0,0,1-1.765-4.9,4.1,4.1,0,0,1,3.465-3.269,8.321,8.321,0,0,1,1.634-.1,21.214,21.214,0,0,1,2.55.311l-.1,1.945s-.131,0-.147-.1a1.634,1.634,0,0,0-1.553-1.634,7.534,7.534,0,0,0-2.027-.033,2.975,2.975,0,0,0-2.795,2.55,4.38,4.38,0,0,0,3.269,5.492,7.24,7.24,0,0,0,1.782,0,.621.621,0,0,0,.6-.752V104.2c0-.915,0-.981-.9-1.226" transform="translate(17.483 62.351)"/>
      <path id="Path_13" data-name="Path 13" d="M51.475,98.43h2.517c-.9.2-.719.915-.736,1.52,0,1.471,0,2.958-.114,4.429a2.893,2.893,0,0,1-1.9,2.664,3.792,3.792,0,0,1-3.694-.376,3.269,3.269,0,0,1-1.193-2.828q0-2.035,0-4.07c0-.981,0-1-.9-1.308h2.648c-.834.1-.719.736-.719,1.275v4.609a2.468,2.468,0,0,0,3.138,2.452,2.272,2.272,0,0,0,1.814-2.157c.114-1.373,0-2.779.114-4.168v-.588c0-1.046,0-1.046-1.03-1.455" transform="translate(28.842 62.448)"/>
      <path id="Path_14" data-name="Path 14" d="M102.69,100.184h-.18c-.343,1.062-.686,2.141-1.046,3.269h2.321l-1.144-3.269m4.56,7.044H105.06a1.486,1.486,0,0,0-.114-.719c-.278-.768-.588-1.52-.85-2.272a.474.474,0,0,0-.539-.376h-1.912a.654.654,0,0,0-.441.311c-.262.67-.49,1.357-.7,2.043s-.131.719.621.981h-2.5c1.128-.1,1.242-1.046,1.52-1.814.8-2.174,1.634-4.331,2.386-6.538,0-.18.147-.343.278-.654.163.327.278.539.36.752l2.452,6.358a1.51,1.51,0,0,0,.245.588c.278.621.588,1.193,1.389,1.291" transform="translate(62.569 62.296)"/>
      <path id="Path_15" data-name="Path 15" d="M54.666,107.114h-2.73c.883-.245.7-1,.7-1.634V99.923c0-1.062,0-1.062-.9-1.406a.458.458,0,0,0,0-.147,31.82,31.82,0,0,1,4.151.278,2.125,2.125,0,0,1,.883,3.547,2.909,2.909,0,0,1-2.6,1,.506.506,0,0,0,0-.131H54.7a1.929,1.929,0,0,0,1.749-2.354,2.092,2.092,0,0,0-2.517-1.814.49.49,0,0,0-.294.376c0,2.239,0,4.462,0,6.685,0,.866,0,.866,1.013,1.209" transform="translate(32.826 62.41)"/>
      <path id="Path_16" data-name="Path 16" d="M88.059,98.42h4.675c0,.409-.1.866-.147,1.34-.147-.932-.85-.9-1.5-.915h-1.1v3.383a5.59,5.59,0,0,0,2.566-.278c0,.572-.1,1.128-.147,1.733-.163-.327-.245-.686-.458-.834a2.141,2.141,0,0,0-.981-.163,9.89,9.89,0,0,0-1,0v3.5c0,.18.311.409.539.523a2.174,2.174,0,0,0,.735,0c1.111,0,1.259,0,1.765-1.046a5.774,5.774,0,0,1-.212,1.275.327.327,0,0,1-.311.2,39.831,39.831,0,0,1-4.38-.163c.834,0,.768-.539.785-1.013V99.417c0-.637-.376-.834-.981-.834a.67.67,0,0,1,0-.147" transform="translate(55.772 62.442)"/>
      <path id="Path_17" data-name="Path 17" d="M92.427,105.321c.212,1.209.7,1.634,1.782,1.634a1.634,1.634,0,0,0,1.357-2.582,13.978,13.978,0,0,0-1.324-1.275,16.486,16.486,0,0,1-1.209-1.177,2.239,2.239,0,0,1-.36-2.468,2.092,2.092,0,0,1,2.043-1.16,15.813,15.813,0,0,1,1.749.163v1.634c-.588-1.193-.932-1.422-1.929-1.34a1.291,1.291,0,0,0-1.177.7,1.308,1.308,0,0,0,.131,1.455,6.308,6.308,0,0,0,.948.915c.49.441,1.046.834,1.5,1.324a2.468,2.468,0,0,1,.556,2.877,2.37,2.37,0,0,1-2.4,1.406,6.538,6.538,0,0,1-1.471-.212.446.446,0,0,1-.343-.311v-1.634h.18" transform="translate(58.547 62.357)"/>
      <path id="Path_18" data-name="Path 18" d="M25.743,98.534v1.455c-.1,0-.147,0-.163-.1a1.634,1.634,0,0,0-2.4-1.013,1.324,1.324,0,0,0-.409,2.01,8.435,8.435,0,0,0,1.03.981c.474.425,1.013.817,1.455,1.291a2.468,2.468,0,0,1,.49,2.844,2.435,2.435,0,0,1-2.354,1.406H22.85c-1.324-.082-1.733-.817-1.177-2.141a.948.948,0,0,1,0,.212,1.749,1.749,0,0,0,3.269.654,1.634,1.634,0,0,0-.114-1.634,7.307,7.307,0,0,0-1-1.013c-.376-.343-.8-.654-1.16-1.013a2.517,2.517,0,0,1-.7-3.024,2.648,2.648,0,0,1,2.893-1.062l.883.2" transform="translate(13.598 62.361)"/>
      <path id="Path_19" data-name="Path 19" d="M99.225,107.051H96.5c.719,0,.686-.637.686-1.111V99.4a.817.817,0,0,0-.752-.932H99c-.8.114-.735.719-.735,1.291v5.982c0,1.013,0,1.013,1,1.34" transform="translate(61.18 62.474)"/>
      <path id="Path_20" data-name="Path 20" d="M58.805,107.047c.572-.1.686-.49.686-.981V99.4c0-.637,0-.67-.752-.948h2.484c-.8.131-.736.735-.736,1.291v6.423a.728.728,0,0,0,.736.752.261.261,0,0,1,.229.131Z" transform="translate(37.267 62.461)"/>
    </g>
  </g>
</svg>
