<svg id="Layer_1" data-name="Layer 1" xmlns="http://www.w3.org/2000/svg" viewBox="0 0 60 60"><defs><style>.cls-1{fill:#5f2523;}</style></defs><title>Artboard 2 copy 3white</title><path class="cls-1" d="M48.53,28.84l-.11.06.11-.06-.05-.09h0a2.41,2.41,0,0,0-1.1-2.12h0a1.63,1.63,0,0,0-.25-.57,1.7,1.7,0,0,0-1.21-.74h-.11a1.65,1.65,0,0,0-.28-.41,2.21,2.21,0,0,0-2-.49l-1.06-1.24a4.11,4.11,0,0,1-.74-1.6,4.07,4.07,0,0,1,0-1.63l.06-.34A6.3,6.3,0,0,0,40.46,15a16.37,16.37,0,0,0-3.91-3.61l-.14-.11A2.61,2.61,0,0,0,34.06,11h-.15a2.47,2.47,0,0,0-2.37.38h0a1.62,1.62,0,0,0-.62.06,1.66,1.66,0,0,0-1.08.92v.1a1.63,1.63,0,0,0-.48.13,2.16,2.16,0,0,0-1.08,1.74L26.76,15a4.25,4.25,0,0,1-1.77.2,4,4,0,0,1-1.54-.53h-.08l-.24-.12a6.31,6.31,0,0,0-4.79-.16A16.77,16.77,0,0,0,13.67,17l-.15.11a2.56,2.56,0,0,0-1,2.13v.1h0a2.42,2.42,0,0,0-.37,2.36h0a1.8,1.8,0,0,0-.13.61,1.66,1.66,0,0,0,.55,1.31l.08.06a2,2,0,0,0,0,.49A2.15,2.15,0,0,0,14,25.68l.13,1.63A4,4,0,0,1,13.75,29a4.19,4.19,0,0,1-1,1.3l-.25.25a6.22,6.22,0,0,0-1.63,4.48,16.83,16.83,0,0,0,1,5.2l.05.17A2.65,2.65,0,0,0,13.69,42h.07a2.47,2.47,0,0,0,2,1.08h.16a1.81,1.81,0,0,0,.54.31,1.72,1.72,0,0,0,1.42-.11l.09-.07a1.5,1.5,0,0,0,.46.17,2.21,2.21,0,0,0,1.91-.76l1.6.38a4,4,0,0,1,1.54.87,4.16,4.16,0,0,1,1,1.32,3.18,3.18,0,0,0,.16.32,6.33,6.33,0,0,0,3.78,2.92,16.94,16.94,0,0,0,5.3.64h.22a2.65,2.65,0,0,0,2-1.16l.06-.07h0a2.42,2.42,0,0,0,1.69-1.7h0a1.85,1.85,0,0,0,.47-.41,1.67,1.67,0,0,0,.33-1.38v-.1a1.3,1.3,0,0,0,.31-.39,2.15,2.15,0,0,0-.15-2l.86-1.39a4.14,4.14,0,0,1,1.31-1.19,4.23,4.23,0,0,1,1.56-.48h.35a6.38,6.38,0,0,0,4-2.67A16.91,16.91,0,0,0,49,31.36l.06-.17A2.56,2.56,0,0,0,48.53,28.84ZM37.17,43.91a15.29,15.29,0,0,1-6.12-2,.41.41,0,0,0-.57.15h0a.44.44,0,0,0,0,.32.43.43,0,0,0,.2.26c1.57.88,4.73,2.13,6.68,2.07a2.2,2.2,0,0,0,.37,0,.8.8,0,0,1-.18.57,1.51,1.51,0,0,1-1.17.47H36.2a16.73,16.73,0,0,1-5.93-1.58.4.4,0,0,0-.55.17l0,0a.44.44,0,0,0,0,.32.4.4,0,0,0,.21.25,21.43,21.43,0,0,0,3.19,1.18,11.55,11.55,0,0,0,3.3.52h.21a1.44,1.44,0,0,1-1.1.56,23.18,23.18,0,0,1-6-1.16.38.38,0,0,0-.33,0,.42.42,0,0,0-.21.24.47.47,0,0,0,0,.33.39.39,0,0,0,.3.27A25.41,25.41,0,0,0,34.86,48a1.41,1.41,0,0,1-1,.37h-.17a16.55,16.55,0,0,1-5-.59,5.57,5.57,0,0,1-3.31-2.53l-.11-.2V45a4.71,4.71,0,0,0-3-2.63l-1.69-.41a7.81,7.81,0,0,1-.21-3.19,8.76,8.76,0,0,1,.86-3,.38.38,0,0,1,.43-.17c1.59.43,2.72.7,3.46.85l.78.16c1.81.37,2.81.57,3.68.29a3.85,3.85,0,0,0,.47-.19,2.39,2.39,0,0,1,2.37,0c-.28.43-.6.93-1,1.5a1.22,1.22,0,0,0,.09,1.46,9.24,9.24,0,0,0,2.94,2,8.77,8.77,0,0,0,3.55.88,1.32,1.32,0,0,1,.12,1.16.83.83,0,0,1-.75.37ZM18,35.59a.43.43,0,0,0-.38-.48.44.44,0,0,0-.46.31c-.36,1.8-.58,5.14.08,7,.05.11.1.22.16.33a.78.78,0,0,1-.6,0,1.54,1.54,0,0,1-.81-1,15.45,15.45,0,0,1-.32-6.24.45.45,0,0,0-.09-.32.4.4,0,0,0-.28-.16H15.2a.43.43,0,0,0-.42.37,20,20,0,0,0-.16,3.37,11.77,11.77,0,0,0,.52,3.28l.08.2a1.39,1.39,0,0,1-.87-.87,22.53,22.53,0,0,1-.74-6,.41.41,0,0,0-.43-.43.42.42,0,0,0-.42.42h0a24.38,24.38,0,0,0,.6,5.65,1.39,1.39,0,0,1-.66-.79l0-.17a16,16,0,0,1-1-4.94,5.54,5.54,0,0,1,1.4-3.9l.24-.23a5,5,0,0,0,1.15-1.55,4.9,4.9,0,0,0,.43-2.13l-.13-1.71a7.58,7.58,0,0,1,3-1.18,8.57,8.57,0,0,1,3.19-.13.37.37,0,0,1,.3.35c.08,1.63.16,2.79.25,3.53a6.18,6.18,0,0,0,.09.78c.21,1.82.32,2.83.86,3.56a3.09,3.09,0,0,0,.33.39,2.35,2.35,0,0,1,.76,2.22l-1.75-.45a1.23,1.23,0,0,0-1.37.53,9.11,9.11,0,0,0-1,3.39,8.37,8.37,0,0,0,.25,3.62,1.31,1.31,0,0,1-1.08.47.87.87,0,0,1-.58-.6A14.81,14.81,0,0,1,18,35.59ZM13.42,24.05a.85.85,0,0,1,.39-.73A15.36,15.36,0,0,1,20,21.27a.44.44,0,0,0,.38-.47.41.41,0,0,0-.46-.37h0c-1.83.21-5.1,1-6.63,2.22a1.6,1.6,0,0,0-.27.25.78.78,0,0,1-.2-.56,1.6,1.6,0,0,1,.67-1.07A16.22,16.22,0,0,1,19.37,19a.43.43,0,0,0,.28-.54.41.41,0,0,0-.43-.3A17.08,17.08,0,0,0,13,20.6l-.17.14a1.42,1.42,0,0,1,.56-1.09,22.94,22.94,0,0,1,5.53-2.55.43.43,0,0,0,.28-.54h0a.42.42,0,0,0-.53-.28h0A25.07,25.07,0,0,0,13.4,18.6a1.37,1.37,0,0,1,.54-.86l.15-.1a16,16,0,0,1,4.43-2.46,5.57,5.57,0,0,1,4.17.12l.23.11H23a5.26,5.26,0,0,0,1.85.62A5.12,5.12,0,0,0,27,15.79l1.64-.67a7.53,7.53,0,0,1,2.06,2.46,8.5,8.5,0,0,1,1.11,3,.38.38,0,0,1-.25.38c-1.54.59-2.62,1-3.3,1.34l-.72.32c-1.68.76-2.61,1.18-3.15,1.91a4,4,0,0,0-.27.44,2.38,2.38,0,0,1-1.89,1.4c0-.52-.07-1.11-.11-1.79a1.24,1.24,0,0,0-.93-1.13A4.61,4.61,0,0,0,20,23.33a14.66,14.66,0,0,0-2.38.24,8.56,8.56,0,0,0-3.39,1.36,1.32,1.32,0,0,1-.79-.87ZM34.93,19a.43.43,0,0,0,.22-.24.36.36,0,0,0,0-.32c-.76-1.67-2.57-4.5-4.18-5.57a2,2,0,0,0-.32-.18.79.79,0,0,1,.48-.36,1.51,1.51,0,0,1,1.23.31,15.88,15.88,0,0,1,3.91,4.86.45.45,0,0,0,.58.17.4.4,0,0,0,.21-.25.47.47,0,0,0,0-.33,20.47,20.47,0,0,0-1.87-2.81,11.19,11.19,0,0,0-2.36-2.35l-.19-.08a1.46,1.46,0,0,1,1.22.2A22.42,22.42,0,0,1,38,16.47a.44.44,0,0,0,.59.1.47.47,0,0,0,.18-.28.41.41,0,0,0-.08-.32,25.15,25.15,0,0,0-3.83-4.22,1.38,1.38,0,0,1,1,.25l.16.12a16.27,16.27,0,0,1,3.71,3.41,5.44,5.44,0,0,1,1.18,4v.31a4.69,4.69,0,0,0,.89,3.91L43,25.06a7.83,7.83,0,0,1-1.72,2.7,8.4,8.4,0,0,1-2.51,2,.4.4,0,0,1-.45-.12c-1.05-1.29-1.8-2.17-2.29-2.7l-.54-.59C34.19,25,33.51,24.26,32.64,24a4.05,4.05,0,0,0-.5-.12,2.36,2.36,0,0,1-1.93-1.35l1.68-.65a1.24,1.24,0,0,0,.8-1.23,9.42,9.42,0,0,0-1.21-3.32,8.74,8.74,0,0,0-2.35-2.78,1.3,1.3,0,0,1,.59-1,.84.84,0,0,1,.82.14,15.11,15.11,0,0,1,3.88,5.22A.46.46,0,0,0,34.93,19ZM34.85,31a2.81,2.81,0,0,1,0,.41c0,.69-.47,1.5-1.31,3l-.39.69c-.11.21-.26.45-.43.73a3.2,3.2,0,0,0-3.17,0l-.38.16c-.66.21-1.58,0-3.25-.32l-.78-.15-.83-.19a3.19,3.19,0,0,0-1-3,2.61,2.61,0,0,1-.27-.31c-.4-.55-.51-1.47-.7-3.15l-.09-.79c0-.23-.06-.51-.08-.84a3.24,3.24,0,0,0,2.58-1.84A2.39,2.39,0,0,1,25,25.1c.41-.56,1.25-.94,2.81-1.64l.73-.33.78-.34a3.2,3.2,0,0,0,2.55,1.87l.4.09c.66.22,1.29.9,2.44,2.15l.54.58.56.63A3.19,3.19,0,0,0,34.85,31Zm3.92,9-.91,1.47a8.08,8.08,0,0,1-3.12-.79A8.62,8.62,0,0,1,32.08,39a.38.38,0,0,1,0-.45c.91-1.39,1.53-2.37,1.89-3,.09-.17.19-.33.28-.49l.11-.2c.91-1.59,1.41-2.47,1.41-3.38a4.34,4.34,0,0,0,0-.51,2.37,2.37,0,0,1,.71-2.23l1.14,1.38a1.27,1.27,0,0,0,1.43.37,9.11,9.11,0,0,0,2.8-2.16,8.49,8.49,0,0,0,1.93-3.08,1.34,1.34,0,0,1,1.16.25.83.83,0,0,1,.12.82,15.17,15.17,0,0,1-3.8,5.27.42.42,0,0,0,0,.59h0a.45.45,0,0,0,.61,0c1.36-1.24,3.51-3.82,4-5.67a2.29,2.29,0,0,0,.07-.36.87.87,0,0,1,.5.34,1.48,1.48,0,0,1,.08,1.25A15.61,15.61,0,0,1,43.09,33a.42.42,0,0,0-.12.3.43.43,0,0,0,.73.3A16.77,16.77,0,0,0,47.27,28a.33.33,0,0,1,0-.21A1.37,1.37,0,0,1,47.51,29a22.85,22.85,0,0,1-3,5.29.48.48,0,0,0-.08.31.46.46,0,0,0,.17.28.43.43,0,0,0,.62,0,.12.12,0,0,0,.05,0,25.23,25.23,0,0,0,2.85-5,1.38,1.38,0,0,1,.07,1l-.06.17A15.88,15.88,0,0,1,46,35.58a5.53,5.53,0,0,1-3.45,2.34l-.32,0a5,5,0,0,0-1.85.58,4.84,4.84,0,0,0-1.61,1.51Z"/></svg>