<svg id="Layer_1" data-name="Layer 1" xmlns="http://www.w3.org/2000/svg" viewBox="0 0 60 60"><defs><style>.cls-1{fill:#5f2523;}</style></defs><title>Artboard 2 copy 4white</title><path class="cls-1" d="M41.6,20.32a.47.47,0,0,0-.19.38.53.53,0,0,0,.14.4,13.33,13.33,0,0,1,3.36,9.29A14.8,14.8,0,1,1,30,15.75h.16A14.13,14.13,0,0,1,39.38,19a.57.57,0,0,0,.79,0,.53.53,0,0,0,.14-.4.54.54,0,0,0-.19-.38,15.22,15.22,0,0,0-10-3.51A15.76,15.76,0,1,0,46,30.44a14.35,14.35,0,0,0-3.64-10,.56.56,0,0,0-.78-.13Z"/><path class="cls-1" d="M30.11,22.33a7.56,7.56,0,0,1,4.57,1.38.55.55,0,0,0,.77-.07h0a.58.58,0,0,0,.13-.4.6.6,0,0,0-.21-.38,8.68,8.68,0,0,0-5.27-1.63,9.18,9.18,0,1,0,9.27,9.17c0-1.8-.66-4.29-1.75-5.34a.57.57,0,0,0-.79,0,.47.47,0,0,0-.15.39.52.52,0,0,0,.17.39,7.45,7.45,0,0,1,1.4,4.54A8.15,8.15,0,1,1,30,22.31h.09Z"/><path class="cls-1" d="M48.06,14.85H45.62V12.44a.57.57,0,0,0-.56-.56.56.56,0,0,0-.56.56v2.77h0l-.45.46V13.92a.56.56,0,1,0-1.12,0h0v2.84l-.42.43V15.37a.57.57,0,0,0-.56-.56.56.56,0,0,0-.56.56v3L30.75,29l.07-1.4A.56.56,0,0,0,30.3,27h-.19a3.42,3.42,0,1,0,3.45,3.41.57.57,0,0,0-.56-.56.56.56,0,0,0-.56.56,2.33,2.33,0,1,1-2.77-2.26l-.11,2.24a.55.55,0,0,0,.33.53.54.54,0,0,0,.62-.12L42.25,19.05H45.1a.56.56,0,1,0,.15-1.11.38.38,0,0,0-.15,0H43.36l.42-.42h2.76a.56.56,0,1,0,.15-1.11.38.38,0,0,0-.15,0H44.89l.44-.44h2.73a.56.56,0,0,0,.15-1.11h-.15Z"/></svg>