<svg id="Layer_1" data-name="Layer 1" xmlns="http://www.w3.org/2000/svg" viewBox="0 0 60 60"><defs><style>.cls-1{fill:#5f2523;}</style></defs><title>Artboard 2 copywhite</title><path class="cls-1" d="M24,41.54a2.49,2.49,0,0,0,1.71,1.75,2,2,0,0,0,.54.07,2.39,2.39,0,0,0,1.72-.8l.09-.11.11.1a12.11,12.11,0,0,0,2.52,2.38,2.69,2.69,0,0,0,3.16-.2,2.25,2.25,0,0,0,.82-1.66v-.14h.13a2.73,2.73,0,0,0,2.47-1,2,2,0,0,0,.48-1.32v-.12h.13a2.69,2.69,0,0,0,2-.84A2.34,2.34,0,0,0,40.59,38v-.11h.11a3.21,3.21,0,0,0,2-1.06,2.36,2.36,0,0,0,.57-2.33v-.1l.09,0A9.59,9.59,0,0,0,47,30.72l0-.1h.09a2.91,2.91,0,0,0,2.62-.55l3.8-3.15a2.69,2.69,0,0,0,.36-3.78h0l-6.34-7.51a2.73,2.73,0,0,0-3.82-.34l-3.8,3.15a3.1,3.1,0,0,0-1.09,2.12v.13h-.13c-1.93-.18-6.65-.52-8.83.21h-.05a15.94,15.94,0,0,0-5.42-1.07h-.09v-.08a2.51,2.51,0,0,0-.85-1.29l-3.8-3.15a2.73,2.73,0,0,0-3.82.34L9.51,23.15a2.67,2.67,0,0,0,.33,3.77v0l3.8,3.15a2.76,2.76,0,0,0,1.74.62h.19l1.57,2.58v.07a2.36,2.36,0,0,0,1.68,3.55h.11V37a2,2,0,0,0,.17.84,2.5,2.5,0,0,0,2.19,1.48h.38v.1a2.66,2.66,0,0,0,.64,1.1,2.36,2.36,0,0,0,1.62.7H24v.11M15.3,29.52a1.58,1.58,0,0,1-1-.33L10.5,26a1.52,1.52,0,0,1-.2-2.13h0l6.34-7.51a1.53,1.53,0,0,1,1.17-.54,1.51,1.51,0,0,1,1,.35l3.8,3.15a1.49,1.49,0,0,1,.2,2.12v0L16.47,29A1.58,1.58,0,0,1,15.3,29.52ZM19,35.78a1.11,1.11,0,0,1-.72-.34,1.16,1.16,0,0,1-.08-1.62l.92-1a1.15,1.15,0,0,1,1.11-.45,1.29,1.29,0,0,1,.88.86.87.87,0,0,1-.2.92l-1.3,1.37A.92.92,0,0,1,19,35.78Zm3.07,1.89-.22.23a.85.85,0,0,1-.61.28,1.33,1.33,0,0,1-1.1-.78.76.76,0,0,1,.15-.87l2.32-2.43a1.07,1.07,0,0,1,.78-.37,1.15,1.15,0,0,1,1,.69,1,1,0,0,1-.27,1.1Zm2.49,2.09a1,1,0,0,1-.69.3,1.18,1.18,0,0,1-.75-.34.91.91,0,0,1-.19-1.22L24.4,37a1.17,1.17,0,0,1,1.15-.37,1.19,1.19,0,0,1,.87.82.82.82,0,0,1-.3.86ZM28,40.86l0-.1-.92,1a1.19,1.19,0,0,1-.86.44h-.23a1.34,1.34,0,0,1-.86-.9.59.59,0,0,1,.15-.61l1.23-1.15a1.12,1.12,0,0,1,.74-.26,1,1,0,0,1,.68.34.89.89,0,0,1,0,1.24Zm13.75-4.74a1.67,1.67,0,0,1-1.94.53h-.06a4.07,4.07,0,0,1-2-1.59.59.59,0,0,0-.83-.14.6.6,0,0,0-.14.82,5.23,5.23,0,0,0,2.33,1.74h.08l.09.05a1.06,1.06,0,0,1-.23,1.29,1.57,1.57,0,0,1-2.15.08,4.33,4.33,0,0,1-1.6-1.37.6.6,0,0,0-.82-.2.56.56,0,0,0-.37.43.61.61,0,0,0,.07.44A5.72,5.72,0,0,0,36.28,40a.82.82,0,0,1,.17,1.16l-.05.06a1.57,1.57,0,0,1-2.16.2,10.74,10.74,0,0,1-1.82-1.68.59.59,0,0,0-1,.66v0a11.35,11.35,0,0,0,1.9,1.83,1.24,1.24,0,0,1-.2,1.49,1.51,1.51,0,0,1-1,.35,1.46,1.46,0,0,1-.76-.22A10.69,10.69,0,0,1,29,41.58l-.06-.08.06-.08a2,2,0,0,0,.48-1.35,2,2,0,0,0-.61-1.4A2.15,2.15,0,0,0,27.7,38h-.12v-.12a2.1,2.1,0,0,0,0-.79,2.38,2.38,0,0,0-1.72-1.67h-.27V35.3a2,2,0,0,0-.1-1.3,2.29,2.29,0,0,0-3-1.2l-.12.06-.12.06v-.13a2.4,2.4,0,0,0-1.69-1.52,2.3,2.3,0,0,0-2.26.8L18,32.4l-1.28-2,.11-.07a2.55,2.55,0,0,0,.61-.52l6.34-7.51a2.58,2.58,0,0,0,.55-1.14v-.1h.1a15.44,15.44,0,0,1,3.83.59l.26.08L26.56,23c-2.32,1.54-2.42,3.39-1.75,4.61A3,3,0,0,0,28.63,29h.07l2.51-1.49,2.84-.15v.06A28.45,28.45,0,0,0,42,34.69c.32.56-.19,1.19-.3,1.31ZM45.87,30a8.4,8.4,0,0,1-3.56,3.45h-.12a29.22,29.22,0,0,1-6.78-6.06l-.14-.19h.87a.58.58,0,0,0,.41-.2.59.59,0,0,0,0-.84.57.57,0,0,0-.47-.16l-5.26.29a.56.56,0,0,0-.27.08l-2.39,1.51A1.88,1.88,0,0,1,25.87,27c-.55-1,0-2.13,1.38-3.07l2.66-1.77c.93-.62,4.84-.73,9.29-.25h0l6.82,8Zm6.94-4h0L49,29.19a1.73,1.73,0,0,1-1.08.38,1.51,1.51,0,0,1-.72-.18L40.1,21.07a1.75,1.75,0,0,1,.63-1.7l0,0,3.8-3.15a1.53,1.53,0,0,1,2.15.19L53,23.9A1.52,1.52,0,0,1,52.81,26Z"/></svg>