<svg id="Layer_1" data-name="Layer 1" xmlns="http://www.w3.org/2000/svg" viewBox="0 0 60 60"><defs><style>.cls-1{fill:#5f2523;}</style></defs><title>Artboard 2white</title><path class="cls-1" d="M30,17.64a9,9,0,0,0-9,8.87,8.83,8.83,0,0,0,5,8V42h1l1.13,3.28h3.7l.12-.43L32.92,42h1V34.46a8.85,8.85,0,0,0-4-16.82m-2.71,21h5.39v2H27.33ZM30.9,44H29.08l-.68-2h3.25Zm2.2-10.46-.38.18v3.79H30.65v-6a1.77,1.77,0,0,0,1.13-1.69,1.75,1.75,0,0,0-3.5,0,1.68,1.68,0,0,0,1.13,1.62v6H27.33V33.65l-.39-.13a7.5,7.5,0,0,1-4.56-7A7.64,7.64,0,0,1,30,18.89h0a7.87,7.87,0,0,1,5.45,2.23,7.61,7.61,0,0,1,2.25,5.4,7.81,7.81,0,0,1-4.7,7M30,30.29a.5.5,0,0,1-.5-.48v0a.49.49,0,0,1,.48-.5h0a.5.5,0,0,1,.5.5.5.5,0,0,1-.5.5"/><rect class="cls-1" x="29.4" y="9.81" width="1.26" height="4.35"/><rect class="cls-1" x="43.19" y="26.58" width="4.35" height="1.24"/><rect class="cls-1" x="12.47" y="26.58" width="4.39" height="1.24"/><polygon class="cls-1" points="38.88 17.56 41.99 14.49 42.88 15.37 39.77 18.44 38.88 17.56"/><polygon class="cls-1" points="17.18 15.35 18.07 14.48 21.18 17.55 20.29 18.42 17.18 15.35"/></svg>