<svg id="Layer_1" data-name="Layer 1" xmlns="http://www.w3.org/2000/svg" viewBox="0 0 60 60"><defs><style>.cls-1{fill:#5f2523;}</style></defs><title>Artboard 2 copy 2white</title><path class="cls-1" d="M38.26,29.93A8.26,8.26,0,1,1,30,21.68h0a8.27,8.27,0,0,1,8.25,8.25m-17.57,0A9.32,9.32,0,1,0,30,20.58a9.31,9.31,0,0,0-9.32,9.35"/><path class="cls-1" d="M30.86,25.4v.71a4.69,4.69,0,0,1,1.27.53l.5-.5A.54.54,0,0,1,33,26a.69.69,0,0,1,.42.18l.4.4a.57.57,0,0,1,.06.74l-.51.51a4.69,4.69,0,0,1,.53,1.27h.72a.55.55,0,0,1,.5.56v.56a.51.51,0,0,1-.47.55h-.75a4.38,4.38,0,0,1-.53,1.28l.51.5a.53.53,0,0,1-.06.74h0l-.42.43a.61.61,0,0,1-.43.19.48.48,0,0,1-.34-.14l-.48-.53a4.13,4.13,0,0,1-1.27.53v.72a.53.53,0,0,1-.56.5h-.56a.51.51,0,0,1-.56-.47v-.75a3.76,3.76,0,0,1-1.27-.53l-.5.51a.54.54,0,0,1-.35.14.61.61,0,0,1-.42-.19l-.4-.4a.54.54,0,0,1-.06-.74l.51-.5a4.09,4.09,0,0,1-.53-1.28h-.72a.55.55,0,0,1-.5-.55v-.56a.51.51,0,0,1,.47-.56h.75a3.76,3.76,0,0,1,.53-1.27l-.51-.51a.52.52,0,0,1,.05-.74h0l.4-.4a.56.56,0,0,1,.42-.18.53.53,0,0,1,.35.13l.5.5a4.44,4.44,0,0,1,1.27-.53v-.71a.52.52,0,0,1,.56-.51h.56a.54.54,0,0,1,.56.51m-2.76-.08a1.54,1.54,0,0,0-1.07-.4,1.63,1.63,0,0,0-1.16.48l-.4.39A1.57,1.57,0,0,0,25.39,28a1.57,1.57,0,0,0-1.51,1.57v.55a1.57,1.57,0,0,0,1.49,1.66,1.59,1.59,0,0,0,.08,2.2l.4.41a1.65,1.65,0,0,0,1.16.48,1.45,1.45,0,0,0,1-.41A1.6,1.6,0,0,0,29.63,36h.55a1.58,1.58,0,0,0,1.61-1.52,1.57,1.57,0,0,0,1,.41A1.74,1.74,0,0,0,34,34.4l.4-.41a1.59,1.59,0,0,0,.5-1.16,1.4,1.4,0,0,0-.4-1A1.58,1.58,0,0,0,36,30.21v-.63A1.57,1.57,0,0,0,34.46,28a1.46,1.46,0,0,0,.4-1.15,1.67,1.67,0,0,0-.48-1.08l-.39-.4a1.69,1.69,0,0,0-1.17-.48,1.49,1.49,0,0,0-1,.4,1.61,1.61,0,0,0-1.61-1.51h-.56A1.64,1.64,0,0,0,28,25.28"/><path class="cls-1" d="M30,28.58A1.33,1.33,0,0,1,31.21,30a1.31,1.31,0,0,1-1.2,1.2,1.34,1.34,0,0,1-1.33-1.33A1.32,1.32,0,0,1,30,28.58M27.62,29.9a2.39,2.39,0,1,0,2.45-2.31H30A2.4,2.4,0,0,0,27.62,30"/><path class="cls-1" d="M43.37,26.4a4.08,4.08,0,0,1,.92-.13h.14a15,15,0,0,0-10.75-10.8v.18a5,5,0,0,1-.11.88,14,14,0,0,1,9.8,9.87"/><path class="cls-1" d="M16.6,26.4a13.94,13.94,0,0,1,9.77-9.82,2.81,2.81,0,0,1-.11-.87v-.19A14.9,14.9,0,0,0,15.54,26.31h.13a2.47,2.47,0,0,1,.93.1"/><path class="cls-1" d="M30,14.09a1.61,1.61,0,1,1-.06,0h0m0,4.27a2.67,2.67,0,1,0-2.6-2.73v0A2.67,2.67,0,0,0,30,18.36"/><path class="cls-1" d="M30,45.94a1.6,1.6,0,1,1,1.59-1.6h0A1.6,1.6,0,0,1,30,45.94m0-4.27a2.66,2.66,0,1,0,2.64,2.67s0,0,0,0A2.65,2.65,0,0,0,30,41.67"/><path class="cls-1" d="M44.37,31.58A1.6,1.6,0,1,1,46,30h0a1.6,1.6,0,0,1-1.59,1.6m0-4.25A2.66,2.66,0,1,0,47,30s0,0,0,0a2.64,2.64,0,0,0-2.64-2.62"/><path class="cls-1" d="M14.08,30a1.6,1.6,0,1,1,1.62,1.57s0,0,0,0A1.59,1.59,0,0,1,14.08,30m4.27,0a2.67,2.67,0,1,0-2.68,2.66A2.67,2.67,0,0,0,18.35,30"/><path class="cls-1" d="M16.65,33.58a3.72,3.72,0,0,1-1,.14h-.11a15.07,15.07,0,0,0,10.7,10.67v-.06a4.3,4.3,0,0,1,.14-1,13.93,13.93,0,0,1-9.73-9.75"/><path class="cls-1" d="M43.37,33.58a14,14,0,0,1-9.77,9.73,4.72,4.72,0,0,1,.13,1h0a15,15,0,0,0,10.7-10.67h-.11a2.76,2.76,0,0,1-1-.06"/></svg>